<?xml version="1.0" encoding="UTF-8"?>
<svg id="Layer_1" data-name="Layer 1" xmlns="http://www.w3.org/2000/svg" xmlns:xlink="http://www.w3.org/1999/xlink" viewBox="0 0 275.89 275.89">
  <defs>
    <style>
      .cls-1 {
        fill: #fff;
      }

      .cls-2 {
        fill: url(#radial-gradient);
        stroke: #231f20;
        stroke-miterlimit: 10;
        stroke-width: .07px;
      }
    </style>
    <radialGradient id="radial-gradient" cx="137.95" cy="137.95" fx="137.95" fy="137.95" r="137.91" gradientUnits="userSpaceOnUse">
      <stop offset="0" stop-color="#21409a"/>
      <stop offset="1" stop-color="#050034"/>
    </radialGradient>
  </defs>
  <circle class="cls-2" cx="137.95" cy="137.95" r="137.91"/>
  <path class="cls-1" d="M113.26,88.75l9.06,13.86-6.24,1.62-21.84-5.01c49.52-90.64,164.51-19,148.03,48.71-20.68-41.95-77.6-67.75-129.02-59.17Zm28.69,156.76c2.04,.12,4.09,.17,6.15,.17,56.78,0,103.28-44.02,107.25-99.79-59.92,22.65-102.24,58.34-113.4,99.62Zm113.63-76.08h.38c-13.44,53.19-61.62,92.55-118.98,92.55-67.77,0-122.72-54.94-122.72-122.72S69.22,16.54,136.99,16.54c57.36,0,105.54,39.36,118.98,92.55h-.38c-13.16-47.05-56.35-81.55-107.6-81.55-61.7,0-111.72,50.02-111.72,111.72s50.02,111.72,111.72,111.72c51.25,0,94.44-34.51,107.6-81.55Zm-138.7,24.87c1.9,8.93,13.67,10.1,18.75,5.92-.94-5.68,13.27-44.16,16.02-44.3,14.12-.74,19.71-14.9,17.31-25.17,7.86,8.17,2.2,26.53,.11,30.88-14.95,11.59-26.49,34.45-28.18,62.5,10-14.31,19.04-29.28,44.13-47.35,20.09-14.47,39.31-23.12,53.91-28.37-17.02-34.41-65.25-58.91-114.39-54.94,.84,.81,8.07,12.53,8.07,12.53l-13.66,3.84,.86,6.01c.16,1.88-36.52,9.33-68.52,3.33,30.2,12.99,66.98,9.94,68.96,9.1l-3.36,66.03Z"/>
</svg>